<svg xmlns="http://www.w3.org/2000/svg" viewBox="0 0 203.83 439.25"><defs><style>.cls-1{fill:#1ef4f4;}</style></defs><g id="Capa_2" data-name="Capa 2"><g id="Capa_1-2" data-name="Capa 1"><path class="cls-1" d="M30.16,158.62l4.36-2.49v4.43a1.1,1.1,0,0,0,2.2,0V155.8l5,2.82a1,1,0,0,0,1-1.79l-6.27-3.57a1,1,0,0,0-1,0l-6.26,3.57a1,1,0,0,0,1,1.79Z"/><path class="cls-1" d="M14.88,167.18a1,1,0,0,0,.51-.13l7.39-4.22a1,1,0,0,0-1-1.79l-7.39,4.22a1,1,0,0,0-.38,1.4A1,1,0,0,0,14.88,167.18Z"/><path class="cls-1" d="M1.1,182.25a1.09,1.09,0,0,0,1.09-1v-5.65l4.34,2.5a1,1,0,0,0,.51.13,1,1,0,0,0,.88-.51,1,1,0,0,0-.37-1.39l-4.2-2.41L8,171.3a1,1,0,0,0,.42-1.41A1.07,1.07,0,0,0,7,169.5L.63,173a1.17,1.17,0,0,0-.63.9v7.28A1.1,1.1,0,0,0,1.1,182.25Z"/><path class="cls-1" d="M1.1,198.73a1.08,1.08,0,0,0,1.09-1v-8.24a1.08,1.08,0,0,0-1.09-1,1.09,1.09,0,0,0-1.1,1v8.24A1.09,1.09,0,0,0,1.1,198.73Z"/><path class="cls-1" d="M8,216.37l-4.91-2.91,4-2.26a1,1,0,0,0-1-1.77l-3.85,2.19v-5a1.08,1.08,0,0,0-1.09-1,1.09,1.09,0,0,0-1.1,1v6.89a1.14,1.14,0,0,0,.61.88L7,218.14a1.13,1.13,0,0,0,.53.14,1,1,0,0,0,.86-.5A1,1,0,0,0,8,216.37Z"/><path class="cls-1" d="M22.78,224.62l-7.39-4.21a1,1,0,0,0-1,1.79l7.39,4.21a1,1,0,0,0,.5.14,1,1,0,0,0,.52-1.93Z"/><path class="cls-1" d="M41.67,228.84l-5,2.82V227.1a1.1,1.1,0,0,0-2.2,0v4.23l-4.36-2.49a1,1,0,0,0-1.4.38,1,1,0,0,0,.38,1.41l6.26,3.57a1,1,0,0,0,.51.13,1,1,0,0,0,.51-.13l6.27-3.57a1,1,0,0,0,.38-1.41A1,1,0,0,0,41.67,228.84Z"/><path class="cls-1" d="M56.44,220.41l-7.39,4.21a1,1,0,1,0,1,1.79l7.39-4.21a1,1,0,0,0-1-1.79Z"/><path class="cls-1" d="M70.42,205.6c-.57,0-.82.46-.82,1v5.3l-4.39-2.51a1,1,0,1,0-1,1.76l4.24,2.44-4.61,2.75a1,1,0,0,0,.52,1.91.75.75,0,0,0,.42-.14l6.17-3.74c.31-.18.3-.52.3-.88v-6.89C71.24,206.06,71,205.6,70.42,205.6Z"/><path class="cls-1" d="M70.42,188.43c-.57,0-.82.46-.82,1v8.24c0,.57.25,1,.82,1s.82-.46.82-1v-8.24C71.24,188.89,71,188.43,70.42,188.43Z"/><path class="cls-1" d="M70.92,173l-6.07-3.54a1,1,0,1,0-1,1.8l4.59,2.59L64.7,176a1,1,0,0,0,1,1.78l3.89-2.22v5.65c0,.56.25,1,.82,1s.82-.47.82-1v-7.28C71.24,173.57,71.24,173.23,70.92,173Z"/><path class="cls-1" d="M57.46,165.26,50.07,161a1,1,0,0,0-1,1.79l7.39,4.22a1,1,0,0,0,1-1.79Z"/><path class="cls-1" d="M35.62,199.6a1.1,1.1,0,0,0-1.1,1V214.2a1.1,1.1,0,0,0,2.2,0V200.62A1.1,1.1,0,0,0,35.62,199.6Z"/><path class="cls-1" d="M36.72,173.46a1.1,1.1,0,0,0-2.2,0V187a1.1,1.1,0,0,0,2.2,0Z"/><path class="cls-1" d="M53.68,202.79l-11.53-6.62a1,1,0,0,0-1,1.77l11.54,6.62a1,1,0,0,0,.5.14,1,1,0,0,0,.89-.52A1,1,0,0,0,53.68,202.79Z"/><path class="cls-1" d="M30.61,189.55l-11.53-6.63a1,1,0,0,0-1,1.77l11.53,6.62a.94.94,0,0,0,.51.14,1,1,0,0,0,.5-1.9Z"/><path class="cls-1" d="M29.5,196.07l-11.73,6.68a1,1,0,0,0,1,1.77l11.73-6.68a1,1,0,1,0-1-1.77Z"/><path class="cls-1" d="M54.36,183.08A1,1,0,0,0,53,182.7l-11.73,6.68a1,1,0,0,0,.5,1.91,1,1,0,0,0,.5-.14L54,184.47A1,1,0,0,0,54.36,183.08Z"/><path class="cls-1" d="M30.16,287.59l4.36-2.48v4.42a1.1,1.1,0,0,0,2.2,0v-4.76l5,2.82a.94.94,0,0,0,.51.14,1,1,0,0,0,.51-1.92l-6.27-3.58a1,1,0,0,0-1,0l-6.26,3.58a1,1,0,1,0,1,1.78Z"/><path class="cls-1" d="M14.88,296.16a1.06,1.06,0,0,0,.51-.14l7.39-4.21a1,1,0,0,0-1-1.79l-7.39,4.21a1,1,0,0,0,.51,1.93Z"/><path class="cls-1" d="M1.1,311.22a1.08,1.08,0,0,0,1.09-1v-5.64L6.53,307a1.06,1.06,0,0,0,.51.14,1,1,0,0,0,.51-1.9l-4.2-2.42L8,300.27a1,1,0,0,0,.42-1.4A1.06,1.06,0,0,0,7,298.48L.63,302a1.14,1.14,0,0,0-.63.89v7.28A1.09,1.09,0,0,0,1.1,311.22Z"/><path class="cls-1" d="M1.1,327.7a1.08,1.08,0,0,0,1.09-1v-8.24a1.08,1.08,0,0,0-1.09-1,1.09,1.09,0,0,0-1.1,1v8.24A1.09,1.09,0,0,0,1.1,327.7Z"/><path class="cls-1" d="M8,345.34l-4.91-2.91,4-2.25a1,1,0,0,0,.38-1.39A1,1,0,0,0,6,338.41L2.19,340.6v-5a1.08,1.08,0,0,0-1.09-1,1.09,1.09,0,0,0-1.1,1v6.89a1.17,1.17,0,0,0,.61.89L7,347.11a1,1,0,0,0,.53.15,1,1,0,0,0,.86-.51A1,1,0,0,0,8,345.34Z"/><path class="cls-1" d="M22.78,353.6l-7.39-4.22a1,1,0,0,0-1,1.79l7.39,4.22a1,1,0,0,0,.5.13,1,1,0,0,0,.52-1.92Z"/><path class="cls-1" d="M41.67,357.81l-5,2.83v-4.56a1.1,1.1,0,0,0-2.2,0v4.22l-4.36-2.49a1,1,0,0,0-1,1.79l6.26,3.57a1.06,1.06,0,0,0,.51.14,1,1,0,0,0,.51-.14l6.27-3.57a1,1,0,0,0-1-1.79Z"/><path class="cls-1" d="M56.44,349.38l-7.39,4.22a1,1,0,0,0-.38,1.4,1,1,0,0,0,1.4.39l7.39-4.22a1,1,0,0,0-1-1.79Z"/><path class="cls-1" d="M70.42,334.57c-.57,0-.82.46-.82,1v5.31l-4.39-2.52a1,1,0,0,0-1,1.77l4.24,2.43-4.61,2.75a1,1,0,0,0-.37,1.41,1,1,0,0,0,.89.51.7.7,0,0,0,.42-.15l6.17-3.73c.31-.19.3-.53.3-.89V335.6C71.24,335,71,334.57,70.42,334.57Z"/><path class="cls-1" d="M70.42,317.4c-.57,0-.82.46-.82,1v8.24c0,.57.25,1,.82,1s.82-.46.82-1v-8.24C71.24,317.86,71,317.4,70.42,317.4Z"/><path class="cls-1" d="M70.92,302l-6.07-3.54a1,1,0,1,0-1,1.79l4.59,2.59L64.7,305a1,1,0,0,0,1,1.77l3.89-2.21v5.64c0,.57.25,1,.82,1s.82-.46.82-1v-7.28C71.24,302.54,71.24,302.2,70.92,302Z"/><path class="cls-1" d="M57.46,294.23,50.07,290a1,1,0,0,0-1,1.79L56.44,296a1,1,0,0,0,1-1.79Z"/><path class="cls-1" d="M35.62,328.58a1.09,1.09,0,0,0-1.1,1v13.58a1.1,1.1,0,0,0,2.2,0V329.6A1.09,1.09,0,0,0,35.62,328.58Z"/><path class="cls-1" d="M36.72,302.43a1.1,1.1,0,0,0-2.2,0V316a1.1,1.1,0,0,0,2.2,0Z"/><path class="cls-1" d="M53.68,331.77l-11.53-6.62a1,1,0,0,0-1,1.76l11.54,6.63a1,1,0,0,0,.5.13,1,1,0,0,0,.51-1.9Z"/><path class="cls-1" d="M30.61,318.52,19.08,311.9a1,1,0,0,0-1,1.77l11.53,6.62a1,1,0,1,0,1-1.77Z"/><path class="cls-1" d="M29.5,325l-11.73,6.68a1,1,0,0,0,.5,1.91,1,1,0,0,0,.51-.14l11.73-6.68a1,1,0,0,0-1-1.77Z"/><path class="cls-1" d="M54.36,312.05a1,1,0,0,0-1.39-.38l-11.73,6.69a1,1,0,0,0-.38,1.39,1,1,0,0,0,.88.51,1,1,0,0,0,.5-.13L54,313.44A1,1,0,0,0,54.36,312.05Z"/><path class="cls-1" d="M162.75,211.09l4.37-2.49V213a1.1,1.1,0,0,0,2.19,0v-4.76l4.95,2.82a1,1,0,0,0,.51.14,1,1,0,0,0,.51-1.93L169,205.73a1,1,0,0,0-1,0l-6.27,3.57a1,1,0,0,0-.38,1.41A1,1,0,0,0,162.75,211.09Z"/><path class="cls-1" d="M147.48,219.66a1,1,0,0,0,.5-.14l7.39-4.21a1,1,0,0,0-1-1.79L147,217.73a1,1,0,0,0,.52,1.93Z"/><path class="cls-1" d="M133.69,234.72a1.09,1.09,0,0,0,1.1-1v-5.64l4.34,2.49a1,1,0,0,0,.5.14,1,1,0,0,0,.89-.51,1,1,0,0,0-.38-1.39l-4.2-2.42,4.61-2.59a1,1,0,0,0,.42-1.4,1.06,1.06,0,0,0-1.43-.39l-6.32,3.54a1.14,1.14,0,0,0-.63.89v7.28A1.09,1.09,0,0,0,133.69,234.72Z"/><path class="cls-1" d="M133.69,251.2a1.09,1.09,0,0,0,1.1-1v-8.24a1.1,1.1,0,0,0-2.2,0v8.24A1.09,1.09,0,0,0,133.69,251.2Z"/><path class="cls-1" d="M140.59,268.84l-4.91-2.91,4-2.25a1,1,0,0,0-1-1.77l-3.84,2.19v-5a1.1,1.1,0,0,0-2.2,0V266a1.17,1.17,0,0,0,.61.89l6.37,3.73a1,1,0,0,0,.53.14,1,1,0,0,0,.87-.5A1,1,0,0,0,140.59,268.84Z"/><path class="cls-1" d="M155.37,277.1,148,272.88a1,1,0,0,0-1,1.79l7.39,4.22a1,1,0,0,0,.51.13,1,1,0,0,0,.89-.52A1,1,0,0,0,155.37,277.1Z"/><path class="cls-1" d="M174.26,281.31l-4.95,2.83v-4.56a1.1,1.1,0,0,0-2.19,0v4.22l-4.37-2.49a1,1,0,0,0-1,1.79l6.27,3.57a1,1,0,0,0,.51.14,1.06,1.06,0,0,0,.51-.14l6.26-3.57a1,1,0,0,0,.39-1.4A1,1,0,0,0,174.26,281.31Z"/><path class="cls-1" d="M189,272.88l-7.38,4.22a1,1,0,0,0,.51,1.92,1,1,0,0,0,.51-.13l7.38-4.22a1,1,0,0,0,.39-1.4A1,1,0,0,0,189,272.88Z"/><path class="cls-1" d="M203,258.07c-.57,0-.82.46-.82,1v5.31l-4.38-2.52a1,1,0,0,0-1,1.77l4.24,2.43-4.61,2.75a1,1,0,0,0,.52,1.91.71.71,0,0,0,.43-.14l6.16-3.73c.31-.19.3-.53.3-.89V259.1C203.83,258.53,203.58,258.07,203,258.07Z"/><path class="cls-1" d="M203,240.9c-.57,0-.82.46-.82,1v8.24c0,.57.25,1,.82,1s.82-.46.82-1v-8.24C203.83,241.36,203.58,240.9,203,240.9Z"/><path class="cls-1" d="M203.51,225.52,197.45,222a1,1,0,0,0-1.4.39,1,1,0,0,0,.39,1.4l4.59,2.59-3.73,2.13a1,1,0,0,0-.38,1.39,1,1,0,0,0,.88.51,1,1,0,0,0,.5-.13l3.89-2.21v5.64c0,.57.25,1,.82,1s.82-.46.82-1v-7.28C203.83,226,203.83,225.7,203.51,225.52Z"/><path class="cls-1" d="M190.05,217.73l-7.38-4.21a1,1,0,1,0-1,1.79l7.38,4.21a1.06,1.06,0,0,0,.51.14,1,1,0,0,0,.51-1.93Z"/><path class="cls-1" d="M168.21,252.08a1.08,1.08,0,0,0-1.09,1v13.59a1.1,1.1,0,0,0,2.19,0V253.09A1.08,1.08,0,0,0,168.21,252.08Z"/><path class="cls-1" d="M169.31,225.93a1.1,1.1,0,0,0-2.19,0v13.58a1.1,1.1,0,0,0,2.19,0Z"/><path class="cls-1" d="M186.27,255.27l-11.53-6.63a1,1,0,1,0-1,1.77L185.26,257a.94.94,0,0,0,.51.14,1,1,0,0,0,.5-1.9Z"/><path class="cls-1" d="M163.21,242l-11.54-6.62a1,1,0,1,0-1,1.77l11.53,6.62a1,1,0,0,0,.51.13,1,1,0,0,0,.88-.51A1,1,0,0,0,163.21,242Z"/><path class="cls-1" d="M162.1,248.54l-11.74,6.68a1,1,0,1,0,1,1.77l11.73-6.68a1,1,0,1,0-1-1.77Z"/><path class="cls-1" d="M187,235.55a1,1,0,0,0-1.39-.38l-11.73,6.69a1,1,0,0,0,1,1.77l11.73-6.69A1,1,0,0,0,187,235.55Z"/><path class="cls-1" d="M162.75,363.53l4.37-2.49v4.43a1.1,1.1,0,0,0,2.19,0v-4.76l4.95,2.82a1,1,0,0,0,.51.14,1,1,0,0,0,.51-1.93L169,358.17a1,1,0,0,0-1,0l-6.27,3.57a1,1,0,0,0-.38,1.41A1,1,0,0,0,162.75,363.53Z"/><path class="cls-1" d="M147.48,372.1a1,1,0,0,0,.5-.14l7.39-4.21a1,1,0,0,0-1-1.79L147,370.17a1,1,0,0,0,.52,1.93Z"/><path class="cls-1" d="M133.69,387.16a1.09,1.09,0,0,0,1.1-1v-5.64l4.34,2.49a1,1,0,0,0,.5.14,1,1,0,0,0,.89-.51,1,1,0,0,0-.38-1.39l-4.2-2.42,4.61-2.59a1,1,0,0,0,.42-1.4,1.06,1.06,0,0,0-1.43-.39L133.22,378a1.14,1.14,0,0,0-.63.89v7.28A1.09,1.09,0,0,0,133.69,387.16Z"/><path class="cls-1" d="M133.69,403.64a1.09,1.09,0,0,0,1.1-1v-8.24a1.1,1.1,0,0,0-2.2,0v8.24A1.09,1.09,0,0,0,133.69,403.64Z"/><path class="cls-1" d="M140.59,421.28l-4.91-2.91,4-2.25a1,1,0,0,0-1-1.77l-3.84,2.19v-5a1.1,1.1,0,0,0-2.2,0v6.89a1.17,1.17,0,0,0,.61.89l6.37,3.73a1,1,0,0,0,.53.14,1,1,0,0,0,.87-.5A1,1,0,0,0,140.59,421.28Z"/><path class="cls-1" d="M155.37,429.54,148,425.32a1,1,0,0,0-1,1.79l7.39,4.22a1,1,0,0,0,.51.13,1,1,0,0,0,.89-.52A1,1,0,0,0,155.37,429.54Z"/><path class="cls-1" d="M174.26,433.75l-4.95,2.82V432a1.1,1.1,0,0,0-2.19,0v4.22l-4.37-2.49a1,1,0,0,0-1,1.79l6.27,3.57a1,1,0,0,0,.51.14,1.06,1.06,0,0,0,.51-.14l6.26-3.57a1,1,0,0,0,.39-1.41A1,1,0,0,0,174.26,433.75Z"/><path class="cls-1" d="M189,425.32l-7.38,4.22a1,1,0,0,0,.51,1.92,1,1,0,0,0,.51-.13l7.38-4.22a1,1,0,0,0,.39-1.4A1,1,0,0,0,189,425.32Z"/><path class="cls-1" d="M203,410.51c-.57,0-.82.46-.82,1v5.31l-4.38-2.52a1,1,0,0,0-1,1.77l4.24,2.43-4.61,2.75a1,1,0,0,0,.52,1.91.71.71,0,0,0,.43-.14l6.16-3.73c.31-.19.3-.53.3-.89v-6.89C203.83,411,203.58,410.51,203,410.51Z"/><path class="cls-1" d="M203,393.34c-.57,0-.82.46-.82,1v8.24c0,.57.25,1,.82,1s.82-.46.82-1v-8.24C203.83,393.8,203.58,393.34,203,393.34Z"/><path class="cls-1" d="M203.51,378l-6.06-3.54a1,1,0,0,0-1.4.39,1,1,0,0,0,.39,1.4L201,378.8l-3.73,2.13a1,1,0,0,0-.38,1.39,1,1,0,0,0,.88.51,1,1,0,0,0,.5-.13l3.89-2.21v5.64c0,.57.25,1,.82,1s.82-.46.82-1v-7.28C203.83,378.48,203.83,378.14,203.51,378Z"/><path class="cls-1" d="M190.05,370.17,182.67,366a1,1,0,1,0-1,1.79L189,372a1.06,1.06,0,0,0,.51.14,1,1,0,0,0,.51-1.93Z"/><path class="cls-1" d="M168.21,404.52a1.08,1.08,0,0,0-1.09,1v13.58a1.1,1.1,0,0,0,2.19,0V405.53A1.08,1.08,0,0,0,168.21,404.52Z"/><path class="cls-1" d="M169.31,378.37a1.1,1.1,0,0,0-2.19,0V392a1.1,1.1,0,0,0,2.19,0Z"/><path class="cls-1" d="M186.27,407.71l-11.53-6.63a1,1,0,0,0-1,1.77l11.53,6.62a.94.94,0,0,0,.51.14,1,1,0,0,0,.5-1.9Z"/><path class="cls-1" d="M163.21,394.46l-11.54-6.62a1,1,0,1,0-1,1.77l11.53,6.62a1,1,0,0,0,.51.13,1,1,0,0,0,.88-.51A1,1,0,0,0,163.21,394.46Z"/><path class="cls-1" d="M162.1,401l-11.74,6.68a1,1,0,1,0,1,1.77l11.73-6.68a1,1,0,1,0-1-1.77Z"/><path class="cls-1" d="M187,388a1,1,0,0,0-1.39-.38l-11.73,6.69a1,1,0,0,0-.38,1.39,1,1,0,0,0,.88.51,1,1,0,0,0,.51-.13l11.73-6.69A1,1,0,0,0,187,388Z"/><path class="cls-1" d="M135.31,420.46a1.06,1.06,0,0,1-.51-.14l-11.25-6.47a1,1,0,1,1,1-1.76l11.26,6.47a1,1,0,0,1-.51,1.9Zm-22.52-12.95a1,1,0,0,1-.5-.13L101,400.91a1,1,0,1,1,1-1.76l11.26,6.47a1,1,0,0,1-.51,1.89ZM90.27,394.57a1,1,0,0,1-.5-.14L78.51,388a1,1,0,1,1,1-1.76l11.26,6.47a1,1,0,0,1,.37,1.39A1,1,0,0,1,90.27,394.57ZM67.75,381.63a1,1,0,0,1-.5-.14L56,375a1,1,0,1,1,1-1.76l11.26,6.47a1,1,0,0,1-.51,1.9ZM45.23,368.68a1,1,0,0,1-.5-.13l-11.26-6.47a1,1,0,0,1-.38-1.39,1,1,0,0,1,1.39-.37l11.26,6.47a1,1,0,0,1-.51,1.89Z"/><path class="cls-1" d="M132.74,379.42a1,1,0,0,1-.5-.14l-9-5.14a1,1,0,1,1,1-1.76l9,5.14a1,1,0,0,1-.51,1.9Zm-18-10.29a.93.93,0,0,1-.5-.14l-9-5.14a1,1,0,1,1,1-1.76l9,5.14a1,1,0,0,1,.37,1.39A1,1,0,0,1,114.78,369.13Zm-18-10.29a1,1,0,0,1-.5-.13l-9-5.15a1,1,0,1,1,1-1.76l9,5.15a1,1,0,0,1-.51,1.89Zm-18-10.29a1,1,0,0,1-.5-.13L70.66,344a1,1,0,1,1,1-1.76l7.7,4.41a1,1,0,0,1,.37,1.38A1,1,0,0,1,78.86,348.55Z"/><path class="cls-1" d="M168.86,360.26a1,1,0,0,1-.5-.14l-11.26-6.47a1,1,0,1,1,1-1.76l11.26,6.47a1,1,0,0,1-.51,1.9Zm-22.52-12.95a1,1,0,0,1-.5-.13l-11.26-6.47a1,1,0,0,1-.38-1.39,1,1,0,0,1,1.39-.37l11.26,6.47a1,1,0,0,1,.37,1.38A1,1,0,0,1,146.34,347.31Zm-22.52-12.94a.93.93,0,0,1-.5-.14l-11.26-6.47a1,1,0,0,1,1-1.76l11.26,6.47a1,1,0,0,1,.37,1.39A1,1,0,0,1,123.82,334.37ZM101.3,321.43a1,1,0,0,1-.5-.14l-11.26-6.47a1,1,0,0,1,1-1.76l11.26,6.47a1,1,0,0,1,.38,1.39A1,1,0,0,1,101.3,321.43ZM78.79,308.48a1,1,0,0,1-.51-.13l-8.37-4.81a1,1,0,0,1,1-1.76l8.37,4.81a1,1,0,0,1-.5,1.89Z"/><path class="cls-1" d="M30.16,5.5,34.52,3V7.44a1.1,1.1,0,0,0,2.2,0V2.67l5,2.83a1,1,0,0,0,1-1.79L36.42.14a1,1,0,0,0-1,0L29.14,3.71a1,1,0,0,0,1,1.79Z"/><path class="cls-1" d="M14.88,14.06a1,1,0,0,0,.51-.13l7.39-4.22a1,1,0,0,0-1-1.79l-7.39,4.22a1,1,0,0,0-.38,1.4A1,1,0,0,0,14.88,14.06Z"/><path class="cls-1" d="M1.1,29.12a1.08,1.08,0,0,0,1.09-1V22.45L6.53,25a1,1,0,0,0,.51.13,1,1,0,0,0,.88-.51,1,1,0,0,0-.37-1.39l-4.2-2.41L8,18.17a1,1,0,0,0,.42-1.4A1.06,1.06,0,0,0,7,16.38L.63,19.92a1.15,1.15,0,0,0-.63.9v7.27A1.09,1.09,0,0,0,1.1,29.12Z"/><path class="cls-1" d="M1.1,45.61a1.08,1.08,0,0,0,1.09-1V36.34a1.08,1.08,0,0,0-1.09-1,1.09,1.09,0,0,0-1.1,1v8.24A1.09,1.09,0,0,0,1.1,45.61Z"/><path class="cls-1" d="M8,63.24l-4.91-2.9,4-2.26a1,1,0,0,0,.38-1.39A1,1,0,0,0,6,56.31L2.19,58.5v-5A1.1,1.1,0,0,0,0,53.5v6.9a1.15,1.15,0,0,0,.61.88L7,65a1,1,0,0,0,.53.15,1,1,0,0,0,.86-.5A1,1,0,0,0,8,63.24Z"/><path class="cls-1" d="M22.78,71.5l-7.39-4.21a1,1,0,0,0-1,1.79l7.39,4.21a1,1,0,0,0,.5.14,1,1,0,0,0,.52-1.93Z"/><path class="cls-1" d="M41.67,75.72l-5,2.82V74a1.1,1.1,0,0,0-2.2,0V78.2l-4.36-2.48a1,1,0,1,0-1,1.78l6.26,3.58a1,1,0,0,0,.51.13,1,1,0,0,0,.51-.13l6.27-3.58a1,1,0,0,0-1-1.78Z"/><path class="cls-1" d="M56.44,67.29,49.05,71.5a1,1,0,1,0,1,1.79l7.39-4.21a1,1,0,0,0-1-1.79Z"/><path class="cls-1" d="M70.42,52.47c-.57,0-.82.47-.82,1v5.31L65.21,56.3a1,1,0,1,0-1,1.76l4.24,2.44-4.61,2.74a1,1,0,0,0-.37,1.42,1,1,0,0,0,.89.5.7.7,0,0,0,.42-.15l6.17-3.73c.31-.19.3-.52.3-.88V53.5C71.24,52.94,71,52.47,70.42,52.47Z"/><path class="cls-1" d="M70.42,35.31c-.57,0-.82.46-.82,1v8.24c0,.57.25,1,.82,1s.82-.46.82-1V36.34C71.24,35.77,71,35.31,70.42,35.31Z"/><path class="cls-1" d="M70.92,19.92l-6.07-3.54a1,1,0,1,0-1,1.79l4.59,2.6L64.7,22.89a1,1,0,1,0,1,1.77l3.89-2.21v5.64c0,.57.25,1,.82,1s.82-.46.82-1V20.82C71.24,20.45,71.24,20.1,70.92,19.92Z"/><path class="cls-1" d="M57.46,12.14,50.07,7.92a1,1,0,0,0-1,1.79l7.39,4.22a1,1,0,0,0,1-1.79Z"/><path class="cls-1" d="M35.62,46.48a1.1,1.1,0,0,0-1.1,1V61.08a1.1,1.1,0,0,0,2.2,0V47.5A1.1,1.1,0,0,0,35.62,46.48Z"/><path class="cls-1" d="M36.72,20.34a1.1,1.1,0,0,0-2.2,0V33.92a1.1,1.1,0,0,0,2.2,0Z"/><path class="cls-1" d="M53.68,49.67,42.15,43.05a1,1,0,0,0-1,1.77l11.54,6.62a1,1,0,0,0,.5.13,1,1,0,0,0,.51-1.9Z"/><path class="cls-1" d="M30.61,36.43,19.08,29.8a1,1,0,0,0-1,1.77L29.6,38.19A1,1,0,0,0,31,37.82,1,1,0,0,0,30.61,36.43Z"/><path class="cls-1" d="M29.5,42.94,17.77,49.63a1,1,0,0,0,1,1.77l11.73-6.69a1,1,0,0,0,.38-1.38A1,1,0,0,0,29.5,42.94Z"/><path class="cls-1" d="M54.36,30A1,1,0,0,0,53,29.58L41.24,36.26a1,1,0,0,0-.38,1.39,1,1,0,0,0,.88.51,1,1,0,0,0,.5-.13L54,31.35A1,1,0,0,0,54.36,30Z"/><path class="cls-1" d="M135.31,138.36a1,1,0,0,1-.51-.14l-11.25-6.47a1,1,0,1,1,1-1.76l11.26,6.47a1,1,0,0,1,.37,1.39A1,1,0,0,1,135.31,138.36Zm-22.52-12.94a1,1,0,0,1-.5-.14L101,118.81a1,1,0,1,1,1-1.76l11.26,6.47a1,1,0,0,1-.51,1.9Zm-22.52-13a1,1,0,0,1-.5-.13l-11.26-6.47a1,1,0,1,1,1-1.76l11.26,6.47a1,1,0,0,1-.51,1.89ZM67.75,99.53a.93.93,0,0,1-.5-.14L56,92.92a1,1,0,1,1,1-1.76l11.26,6.47A1,1,0,0,1,68.63,99,1,1,0,0,1,67.75,99.53ZM45.23,86.59a1,1,0,0,1-.5-.14L33.47,80a1,1,0,1,1,1-1.76l11.26,6.47a1,1,0,0,1-.51,1.9Z"/><path class="cls-1" d="M132.74,97.32a.93.93,0,0,1-.5-.14l-9-5.14a1,1,0,1,1,1-1.76l9,5.14a1,1,0,0,1,.37,1.39A1,1,0,0,1,132.74,97.32ZM114.78,87a1,1,0,0,1-.5-.13l-9-5.15a1,1,0,0,1-.38-1.38,1,1,0,0,1,1.39-.38l9,5.15a1,1,0,0,1,.37,1.38A1,1,0,0,1,114.78,87Zm-18-10.29a1,1,0,0,1-.5-.13l-9-5.14a1,1,0,1,1,1-1.76l9,5.14a1,1,0,0,1,.37,1.38A1,1,0,0,1,96.82,76.74Zm-18-10.28a1,1,0,0,1-.5-.14l-7.7-4.41a1,1,0,1,1,1-1.76l7.7,4.41a1,1,0,0,1-.51,1.9Z"/><path class="cls-1" d="M168.86,78.16a.93.93,0,0,1-.5-.14L157.1,71.55a1,1,0,1,1,1-1.76l11.26,6.48a1,1,0,0,1-.51,1.89ZM146.34,65.22a1,1,0,0,1-.5-.14l-11.26-6.47a1,1,0,1,1,1-1.76l11.26,6.47a1,1,0,0,1-.51,1.9ZM123.82,52.27a1,1,0,0,1-.5-.13l-11.26-6.47a1,1,0,0,1,1-1.76l11.26,6.47a1,1,0,0,1-.51,1.89ZM101.3,39.33a.93.93,0,0,1-.5-.14L89.54,32.72a1,1,0,0,1,1-1.76l11.26,6.48a1,1,0,0,1-.51,1.89ZM78.79,26.39a1,1,0,0,1-.51-.14l-8.37-4.81a1,1,0,0,1,1-1.76l8.37,4.81a1,1,0,0,1,.38,1.39A1,1,0,0,1,78.79,26.39Z"/><path class="cls-1" d="M173.67,81.62l-4.36-2.49v4.43a1.1,1.1,0,0,1-2.19,0V78.8l-5,2.82a1.06,1.06,0,0,1-.51.14,1,1,0,0,1-.51-1.93l6.26-3.57a1,1,0,0,1,1,0l6.26,3.57a1,1,0,1,1-1,1.79Z"/><path class="cls-1" d="M189,90.19a1.06,1.06,0,0,1-.51-.14l-7.38-4.21a1,1,0,1,1,1-1.79l7.38,4.21a1,1,0,0,1-.51,1.93Z"/><path class="cls-1" d="M202.74,105.25a1.09,1.09,0,0,1-1.1-1V98.58l-4.34,2.49a1,1,0,0,1-1.39-.38,1,1,0,0,1,.38-1.39l4.2-2.41-4.62-2.59a1,1,0,0,1-.41-1.41,1.06,1.06,0,0,1,1.43-.39l6.31,3.55a1.12,1.12,0,0,1,.63.89v7.28A1.08,1.08,0,0,1,202.74,105.25Z"/><path class="cls-1" d="M202.74,121.73a1.09,1.09,0,0,1-1.1-1v-8.24a1.1,1.1,0,0,1,2.19,0v8.24A1.08,1.08,0,0,1,202.74,121.73Z"/><path class="cls-1" d="M195.84,139.37l4.91-2.91-4-2.25a1,1,0,0,1,1-1.78l3.84,2.19v-5a1.1,1.1,0,0,1,2.19,0v6.89a1.11,1.11,0,0,1-.61.88l-6.37,3.74a1,1,0,0,1-.52.14,1,1,0,0,1-.87-.5A1,1,0,0,1,195.84,139.37Z"/><path class="cls-1" d="M181.06,147.63l7.38-4.22a1,1,0,1,1,1,1.79l-7.38,4.21a1,1,0,0,1-.51.14,1,1,0,0,1-.9-.52A1,1,0,0,1,181.06,147.63Z"/><path class="cls-1" d="M162.17,151.84l5,2.82V150.1a1.1,1.1,0,0,1,2.19,0v4.23l4.36-2.49a1,1,0,1,1,1,1.79l-6.26,3.57a1,1,0,0,1-1,0l-6.26-3.57a1,1,0,1,1,1-1.79Z"/><path class="cls-1" d="M147.4,143.41l7.38,4.22a1,1,0,0,1,.39,1.4,1,1,0,0,1-.9.52,1,1,0,0,1-.51-.14l-7.38-4.21a1,1,0,1,1,1-1.79Z"/><path class="cls-1" d="M133.42,128.6c.56,0,.82.46.82,1v5.31l4.38-2.52a1,1,0,0,1,1,1.77l-4.25,2.43,4.62,2.75a1,1,0,0,1-.52,1.91.71.71,0,0,1-.43-.14l-6.16-3.74c-.31-.18-.31-.52-.31-.88v-6.89C132.59,129.06,132.85,128.6,133.42,128.6Z"/><path class="cls-1" d="M133.42,111.43c.56,0,.82.46.82,1v8.24c0,.57-.26,1-.82,1s-.83-.46-.83-1v-8.24C132.59,111.89,132.85,111.43,133.42,111.43Z"/><path class="cls-1" d="M132.92,96.05,139,92.5a1,1,0,0,1,1,1.8l-4.59,2.59L139.13,99a1,1,0,0,1-.5,1.9,1,1,0,0,1-.51-.13l-3.88-2.22v5.65c0,.57-.26,1-.82,1s-.83-.46-.83-1V96.94C132.59,96.57,132.59,96.23,132.92,96.05Z"/><path class="cls-1" d="M146.38,88.26l7.38-4.21a1,1,0,1,1,1,1.79l-7.38,4.21a1.06,1.06,0,0,1-.51.14,1,1,0,0,1-.51-1.93Z"/><path class="cls-1" d="M168.21,122.6a1.09,1.09,0,0,1,1.1,1V137.2a1.1,1.1,0,0,1-2.19,0V123.62A1.09,1.09,0,0,1,168.21,122.6Z"/><path class="cls-1" d="M167.12,96.46a1.1,1.1,0,0,1,2.19,0V110a1.1,1.1,0,0,1-2.19,0Z"/><path class="cls-1" d="M150.15,125.8l11.54-6.63a1,1,0,1,1,1,1.77l-11.53,6.62a1.06,1.06,0,0,1-.51.14,1,1,0,0,1-.51-1.9Z"/><path class="cls-1" d="M173.22,112.55l11.53-6.62a1,1,0,1,1,1,1.76l-11.54,6.63a1,1,0,0,1-.5.13,1,1,0,0,1-.51-1.9Z"/><path class="cls-1" d="M174.33,119.07l11.73,6.68a1,1,0,1,1-1,1.77l-11.74-6.68a1,1,0,1,1,1-1.77Z"/><path class="cls-1" d="M149.48,106.08a1,1,0,0,1,1.38-.38l11.74,6.68a1,1,0,0,1-1,1.78l-11.73-6.69A1,1,0,0,1,149.48,106.08Z"/><path class="cls-1" d="M69.6,215.08a1,1,0,0,1-.52-1.89l11.2-6.57a1,1,0,0,1,1,1.75l-11.2,6.57A1,1,0,0,1,69.6,215.08ZM92,201.94a1,1,0,0,1-.51-1.89l11.2-6.58a1,1,0,0,1,1.39.37,1,1,0,0,1-.37,1.38l-11.2,6.58A1.06,1.06,0,0,1,92,201.94Zm22.4-13.15a1,1,0,0,1-.51-1.89l11.2-6.57a1,1,0,0,1,1,1.75l-11.2,6.57A1,1,0,0,1,114.4,188.79Zm22.41-13.14a1,1,0,0,1-.52-1.89l11.2-6.57a1,1,0,0,1,1.39.36,1,1,0,0,1-.36,1.39l-11.2,6.57A1.06,1.06,0,0,1,136.81,175.65Zm22.4-13.15a1,1,0,0,1-.88-.5,1,1,0,0,1,.36-1.39l11.2-6.57a1,1,0,1,1,1,1.75l-11.2,6.57A1,1,0,0,1,159.21,162.5Z"/><path class="cls-1" d="M71.09,173.44a1,1,0,0,1-.5-1.89l9-5.15a1,1,0,0,1,1,1.77l-9,5.14A1,1,0,0,1,71.09,173.44Zm18-10.28a1,1,0,0,1-.88-.51,1,1,0,0,1,.38-1.39l9-5.14a1,1,0,0,1,1,1.76l-9,5.14A1.06,1.06,0,0,1,89.05,163.16Zm18-10.29a1,1,0,0,1-.5-1.9l9-5.14a1,1,0,0,1,1,1.76l-9,5.14A1,1,0,0,1,107,152.87Zm18-10.29a1,1,0,0,1-.5-1.89l7.7-4.42a1,1,0,0,1,1,1.77l-7.7,4.41A1,1,0,0,1,125,142.58Z"/><path class="cls-1" d="M35,154.28a1,1,0,0,1-.5-1.89l11.26-6.47a1,1,0,0,1,1,1.76l-11.26,6.47A1,1,0,0,1,35,154.28Zm22.52-12.94a1,1,0,0,1-.5-1.89L68.24,133a1,1,0,0,1,1,1.76L58,141.2A1,1,0,0,1,57.49,141.34ZM80,128.4a1,1,0,0,1-.51-1.9L90.76,120a1,1,0,0,1,1,1.76l-11.26,6.47A1.06,1.06,0,0,1,80,128.4Zm22.52-13a1,1,0,0,1-.51-1.89l11.26-6.47a1,1,0,1,1,1,1.76L103,115.32A1,1,0,0,1,102.53,115.45Zm22.52-12.94a1,1,0,0,1-.51-1.89l8.37-4.81a1,1,0,0,1,1.39.37,1,1,0,0,1-.38,1.39l-8.37,4.8A.93.93,0,0,1,125.05,102.51Z"/><path class="cls-1" d="M1,304.78a1,1,0,0,1-1-1V291.31a1,1,0,1,1,2,0v12.46A1,1,0,0,1,1,304.78Zm0-25.44a1,1,0,0,1-1-1v-13a1,1,0,0,1,2,0v13A1,1,0,0,1,1,279.34Zm0-26a1,1,0,0,1-1-1v-13a1,1,0,0,1,2,0v13A1,1,0,0,1,1,253.36Zm0-26a1,1,0,0,1-1-1v-13a1,1,0,1,1,2,0v13A1,1,0,0,1,1,227.39Z"/><path class="cls-1" d="M70.41,303.86a1,1,0,0,1-1-1V291.31a1,1,0,1,1,2,0v11.53A1,1,0,0,1,70.41,303.86Zm0-24.52a1,1,0,0,1-1-1v-13a1,1,0,0,1,2,0v13A1,1,0,0,1,70.41,279.34Zm0-26a1,1,0,0,1-1-1v-13a1,1,0,0,1,2,0v13A1,1,0,0,1,70.41,253.36Zm0-26a1,1,0,0,1-1-1v-13a1,1,0,1,1,2,0v13A1,1,0,0,1,70.41,227.39Z"/><path class="cls-1" d="M35.62,284.61a1,1,0,0,1-1-1V273.45a1,1,0,0,1,2,0V283.6A1,1,0,0,1,35.62,284.61Zm0-20.29a1,1,0,0,1-1-1V253.16a1,1,0,0,1,2,0v10.15A1,1,0,0,1,35.62,264.32Zm0-20.29a1,1,0,0,1-1-1v-9.88a1,1,0,0,1,2,0V243A1,1,0,0,1,35.62,244Z"/><path class="cls-1" d="M70.42,304a1,1,0,0,1-.51-1.89l12.77-7.5a1,1,0,0,1,1.39.36,1,1,0,0,1-.36,1.39l-12.78,7.5A1.06,1.06,0,0,1,70.42,304ZM96,289a1,1,0,0,1-.51-1.89l12.77-7.5a1,1,0,0,1,1,1.75l-12.78,7.5A.94.94,0,0,1,96,289Zm25.55-15a1,1,0,0,1-.51-1.89l12.17-7.14a1,1,0,0,1,1.38.36,1,1,0,0,1-.36,1.39L122,273.83A1.1,1.1,0,0,1,121.52,274Z"/><path class="cls-1" d="M35.62,284.61a1,1,0,0,1-.51-1.89l6.86-4a1,1,0,1,1,1,1.75l-6.86,4A1,1,0,0,1,35.62,284.61ZM53.88,274a1,1,0,0,1-.87-.5,1,1,0,0,1,.36-1.39l11.4-6.63a1,1,0,1,1,1,1.75l-11.4,6.63A.94.94,0,0,1,53.88,274Zm22.81-13.27a1,1,0,0,1-.52-1.89l11.41-6.63a1,1,0,0,1,1,1.75l-11.4,6.64A1.07,1.07,0,0,1,76.69,260.72Zm22.8-13.26a1,1,0,0,1-.51-1.89l11.4-6.63a1,1,0,0,1,1,1.75L100,247.32A1,1,0,0,1,99.49,247.46Zm22.8-13.26a1,1,0,0,1-.88-.51,1,1,0,0,1,.37-1.39l11.4-6.63a1,1,0,1,1,1,1.75l-11.4,6.64A1.06,1.06,0,0,1,122.29,234.2Z"/><path class="cls-1" d="M69.31,344.14a1,1,0,0,1-.51-1.89l11.42-6.6a1,1,0,1,1,1,1.76L69.82,344A1,1,0,0,1,69.31,344.14Zm22.84-13.2a1,1,0,0,1-.51-1.89l11.42-6.6a1,1,0,1,1,1,1.76l-11.42,6.6A1,1,0,0,1,92.15,330.94ZM115,317.74a1,1,0,0,1-.51-1.89l11.42-6.6a1,1,0,1,1,1,1.76l-11.42,6.6A1,1,0,0,1,115,317.74Zm22.84-13.2a1,1,0,0,1-.51-1.89l11.42-6.6a1,1,0,1,1,1,1.76l-11.41,6.6A1,1,0,0,1,137.83,304.54Zm22.84-13.2a1,1,0,0,1-.51-1.89l7.84-4.53a1,1,0,1,1,1,1.76l-7.85,4.53A1,1,0,0,1,160.67,291.34Z"/></g></g></svg>