<svg viewBox="0 0 512 512" xmlns="http://www.w3.org/2000/svg"><path style="fill:#5757f7" d="M0 0h512v512H0z"/><path style="fill:#fff" d="M285.43 467.1c-1.58 0-3.16-.41-4.57-1.23l-173.6-100.72a9.094 9.094 0 0 1-4.53-7.87V155.82c0-3.25 1.73-6.25 4.54-7.88L280.98 47.23a9.108 9.108 0 0 1 9.09-.03l88.55 50.69c4.36 2.5 5.88 8.06 3.38 12.42-2.5 4.36-8.06 5.88-12.42 3.38l-84-48.09-164.65 95.47v190.96l164.51 95.45 95.94-55.32-38.73-23.34-52.64 30.73a9.127 9.127 0 0 1-9.28-.06l-113.16-67.98a9.113 9.113 0 0 1-4.42-7.8v-134.3a9.08 9.08 0 0 1 4.54-7.87l113.16-65.62c4.35-2.52 9.92-1.04 12.44 3.31 2.52 4.35 1.04 9.92-3.31 12.44l-108.62 62.99v123.9l104.12 62.55 39.39-23-44.15-26.6a9.126 9.126 0 0 1-4.41-7.8v-65.68c0-3.22 1.7-6.21 4.48-7.84l116.42-68.62a9.105 9.105 0 0 1 9.14-.06 9.1 9.1 0 0 1 4.59 7.9v134.3c0 3.24-1.72 6.23-4.51 7.86l-45.87 26.79L404 384.53a9.072 9.072 0 0 1 4.4 7.88 9.106 9.106 0 0 1-4.55 7.8l-113.88 65.67a9.133 9.133 0 0 1-4.55 1.22Zm9.1-148.53 48.27 29.08 49.95-29.17V205.34l-98.22 57.89v55.34Z"/></svg>