<?xml version="1.0" standalone="no"?>
<!DOCTYPE svg PUBLIC "-//W3C//DTD SVG 20010904//EN"
 "http://www.w3.org/TR/2001/REC-SVG-20010904/DTD/svg10.dtd">
<svg version="1.0" xmlns="http://www.w3.org/2000/svg"
 width="260.000000pt" height="260.000000pt" viewBox="0 0 260.000000 260.000000"
 preserveAspectRatio="xMidYMid meet">
<metadata>
Created by potrace 1.11, written by Peter Selinger 2001-2013
</metadata>
<g transform="translate(0.000000,260.000000) scale(0.100000,-0.100000)"
fill="#000000" stroke="none">
<path d="M0 1300 l0 -1300 1300 0 1300 0 0 1300 0 1300 -1300 0 -1300 0 0
-1300z m1375 713 c63 -36 83 -63 48 -63 -9 0 -36 11 -60 25 l-43 26 0 -51 c0
-43 -3 -50 -20 -50 -17 0 -20 7 -20 46 0 25 -3 44 -7 42 -5 -2 -25 -12 -46
-23 -28 -14 -40 -16 -49 -7 -6 6 -10 14 -7 16 10 9 125 75 132 76 4 0 37 -17
72 -37z m-305 -127 c0 -6 -34 -31 -76 -55 -56 -32 -79 -40 -87 -32 -15 15 -3
26 80 72 66 37 83 40 83 15z m630 -62 c10 -10 11 -17 3 -25 -8 -8 -31 0 -87
32 -71 40 -86 56 -69 72 7 7 127 -56 153 -79z m-902 -91 c-2 -10 -20 -27 -41
-38 -20 -11 -37 -23 -37 -26 0 -3 18 -15 40 -28 22 -12 40 -27 40 -32 0 -20
-29 -20 -61 0 -19 12 -37 21 -41 21 -5 0 -8 -25 -8 -55 0 -48 -2 -55 -20 -55
-18 0 -20 7 -20 79 l0 80 63 35 c69 40 90 44 85 19z m1092 -16 l55 -33 3 -82
c2 -68 0 -82 -13 -82 -12 0 -15 12 -15 56 0 50 -2 55 -17 49 -59 -25 -73 -28
-80 -21 -7 7 17 32 56 57 9 6 12 12 6 15 -37 16 -75 46 -75 59 0 23 19 18 80
-18z m-572 -164 c-3 -115 -6 -138 -18 -138 -12 0 -15 23 -18 138 -2 132 -2
137 18 137 20 0 20 -5 18 -137z m-195 -121 c53 -31 97 -60 97 -65 0 -25 -42
-12 -137 43 -129 75 -117 66 -109 85 7 19 4 20 149 -63z m517 61 c0 -12 -35
-38 -108 -78 -108 -61 -137 -71 -137 -47 0 13 209 141 233 141 6 1 12 -7 12
-16z m-952 -185 c-2 -75 -6 -93 -18 -93 -12 0 -16 18 -18 93 -3 87 -2 92 18
92 20 0 21 -5 18 -92z m1260 0 c-2 -54 -7 -93 -13 -93 -6 0 -11 39 -13 93 -2
78 0 92 13 92 13 0 15 -14 13 -92z m-735 -63 c2 -12 -225 -145 -235 -138 -23
13 3 37 100 92 102 58 131 68 135 46z m313 -46 c109 -64 122 -75 107 -90 -12
-12 -243 118 -243 137 0 25 30 15 136 -47z m-211 -145 c0 -117 -2 -139 -15
-139 -12 0 -15 22 -18 129 -3 137 0 160 21 153 9 -3 12 -40 12 -143z m-627
-22 l3 -52 40 20 c38 20 59 20 59 0 0 -5 -18 -20 -41 -33 l-40 -24 51 -32 c43
-27 50 -34 39 -47 -10 -12 -15 -12 -33 -1 -12 8 -42 26 -68 41 l-48 28 0 72
c0 40 3 76 7 80 16 16 28 -4 31 -52z m1262 -27 l0 -75 -62 -39 c-34 -22 -66
-37 -70 -35 -19 12 -5 34 32 55 22 13 40 25 40 28 0 3 -18 16 -40 29 -22 12
-40 27 -40 32 0 21 23 20 65 -4 l45 -25 0 53 c0 29 3 56 6 59 16 16 24 -10 24
-78z m-954 -227 c69 -39 84 -55 67 -71 -6 -7 -127 55 -152 78 -12 12 -8 35 6
35 3 0 39 -19 79 -42z m709 21 c0 -15 -144 -101 -157 -93 -21 13 -2 33 65 72
73 42 92 46 92 21z m-387 -142 l3 -47 43 25 c23 14 50 25 59 25 36 0 14 -27
-50 -64 l-66 -38 -54 28 c-79 43 -89 52 -75 66 9 9 20 7 49 -7 21 -11 41 -21
46 -23 4 -2 7 14 7 36 0 71 33 70 38 -1z"/>
</g>
</svg>
